<svg width="500" height="421" xmlns="http://www.w3.org/2000/svg">

 <g>
  <title>background</title>
  <rect fill="none" id="canvas_background" height="602" width="802" y="-1" x="-1"/>
 </g>
 <g>
  <title>Layer 1</title>
  <g id="BACKGROUND"/>
  <g id="OBJECTS"/>
  <g id="DESIGNED_BY_FREEPIK">
   <path id="svg_2" d="m363.881,108.686l0,63.15c0,3.618 -2.934,6.554 -6.545,6.554l-77.947,0c-3.609,0 -6.535,-2.936 -6.535,-6.554l0,-63.15c0,-3.61 2.926,-6.544 6.535,-6.544l77.947,0c3.611,0 6.545,2.933 6.545,6.544z" fill="#e9411d" opacity="0.15"/>
   <g id="svg_3">
    <g id="svg_4">
     <g id="svg_5">
      <path id="svg_6" d="m360.717,287.818c0,1.259 -6.615,2.278 -14.775,2.278s-14.773,-1.02 -14.773,-2.278c0,-1.257 6.824,-1.607 14.984,-1.607c8.158,0 14.564,0.351 14.564,1.607z" fill="#0B4870"/>
     </g>
    </g>
    <g id="svg_7">
     <g id="svg_8">
      <path id="svg_9" d="m373.293,226.791c0,0 -0.008,0.127 -0.016,0.36c-0.146,2.862 -1.547,22.256 -12.711,38.783c-12.096,17.897 -5.68,24.653 -5.68,24.653l-7.053,0c0,0 3.109,-52.442 25.154,-63.642c0.101,-0.054 0.206,-0.105 0.306,-0.154z" fill="#e9411d"/>
     </g>
    </g>
    <g id="svg_10">
     <g id="svg_11">
      <g id="svg_12">
       <path id="svg_13" d="m373.293,226.791c0,0 -0.008,0.127 -0.016,0.36c-1.18,1.928 -8.557,14.244 -15.184,29.924c-7.418,17.529 -6.006,31.505 -5.99,31.648c0.014,0.091 -0.059,0.183 -0.158,0.189l-0.02,0c-0.086,0 -0.164,-0.064 -0.178,-0.155c-0.014,-0.142 -1.434,-14.21 6.014,-31.817c6.664,-15.749 14.082,-28.107 15.227,-29.994c0.1,-0.055 0.205,-0.106 0.305,-0.155z" fill="#0B4870"/>
      </g>
     </g>
    </g>
    <g id="svg_14" opacity="0.24">
     <g id="svg_15">
      <path id="svg_16" d="m350.404,271.077l3.656,7.88c0,0 -1.238,4.787 -0.812,7.005c0.426,2.217 0.615,2.776 0.615,2.776l-2.062,0l-1.609,-16.514l0.212,-1.147z"/>
     </g>
    </g>
    <g id="svg_17">
     <g id="svg_18">
      <path id="svg_19" d="m347.623,290.588l-6.07,0c0,0 -3.363,-16.689 -17.396,-29.604c-0.191,-0.178 -0.24,-0.417 -0.184,-0.631c0.029,-0.112 0.084,-0.218 0.162,-0.311c0.156,-0.19 0.402,-0.303 0.686,-0.254c3.293,0.599 10.176,2.953 17.496,12.061c10.181,12.669 5.306,18.739 5.306,18.739z" fill="#e9411d"/>
     </g>
    </g>
    <g id="svg_20">
     <g id="svg_21">
      <path id="svg_22" d="m354.061,291.437l-5.873,0c0,0 -0.982,-2.806 -5.871,-19.588c-4.559,-15.615 5.51,-40.259 6.945,-43.625l0,-0.006c0.105,-0.254 0.162,-0.381 0.162,-0.381c0.051,-0.029 0.105,-0.058 0.156,-0.07c2.387,-0.736 6.543,11.877 3.107,22.291c-6.689,20.322 1.374,41.379 1.374,41.379z" fill="#e9411d"/>
     </g>
    </g>
    <g id="svg_23">
     <g id="svg_24">
      <g id="svg_25">
       <path id="svg_26" d="m349.855,289.96c0.035,0.091 -0.014,0.188 -0.1,0.226c-0.021,0.007 -0.041,0.013 -0.062,0.013c-0.072,0 -0.141,-0.042 -0.17,-0.111c-2.861,-7.504 -5.984,-24.159 -2.861,-39.287c2.699,-13.071 2.656,-20.828 2.6,-22.576l0,-0.006c0.105,-0.254 0.162,-0.381 0.162,-0.381c0.051,-0.029 0.105,-0.058 0.156,-0.07c0.014,0.021 0.02,0.041 0.02,0.063c0.008,0.076 0.488,8.116 -2.592,23.042c-3.11,15.055 0,31.624 2.847,39.087z" fill="#0B4870"/>
      </g>
     </g>
    </g>
    <g id="svg_27">
     <g id="svg_28">
      <g id="svg_29">
       <path id="svg_30" d="m345.021,289.407c0.008,0.1 -0.064,0.185 -0.162,0.19c0,0 -0.006,0 -0.014,0c-0.092,0 -0.17,-0.063 -0.178,-0.154c-1.602,-18.146 -19.938,-28.667 -20.695,-29.091c0.029,-0.112 0.084,-0.218 0.162,-0.311c0.581,0.32 19.249,10.946 20.887,29.366z" fill="#0B4870"/>
      </g>
     </g>
    </g>
    <g id="svg_31">
     <g id="svg_32">
      <path id="svg_33" d="m357.768,317.784c0,0 -3.428,1.25 -11.826,1.056c-6.391,-0.146 -12.709,-1.056 -12.709,-1.056l-2.064,-30.065c0,0 4.268,0.959 14.984,0.959c11.352,0 14.564,-0.959 14.564,-0.959l-2.949,30.065z" fill="#000000"/>
     </g>
    </g>
   </g>
   <circle id="svg_41" r="4.942" cy="134.645" cx="330.024" fill="#0B4870"/>
   <circle id="svg_42" r="4.942" cy="152.155" cx="308.056" fill="#0B4870"/>
   <circle id="svg_43" r="4.943" cy="134.619" cx="285.766" fill="#0B4870"/>
   <g id="svg_44">
    <g id="svg_45">
     <path id="svg_46" d="m285.002,133.717l0,-0.526l1.934,0l0,0.41c-0.16,0.158 -0.322,0.383 -0.488,0.676c-0.164,0.295 -0.289,0.607 -0.377,0.938c-0.086,0.33 -0.127,0.625 -0.127,0.886l-0.545,0c0.01,-0.408 0.094,-0.824 0.252,-1.247c0.16,-0.424 0.371,-0.803 0.637,-1.137l-1.286,0z" fill="#e9411d"/>
     <path id="svg_47" d="m296.543,134.51c-0.146,-0.062 -0.252,-0.146 -0.318,-0.256c-0.066,-0.107 -0.1,-0.226 -0.1,-0.354c0,-0.221 0.076,-0.4 0.23,-0.546c0.154,-0.144 0.371,-0.215 0.654,-0.215c0.281,0 0.498,0.071 0.652,0.215c0.156,0.146 0.232,0.325 0.232,0.546c0,0.137 -0.035,0.259 -0.105,0.364c-0.07,0.107 -0.172,0.188 -0.301,0.246c0.164,0.065 0.289,0.161 0.373,0.286c0.086,0.127 0.129,0.272 0.129,0.437c0,0.272 -0.088,0.493 -0.262,0.665c-0.172,0.17 -0.404,0.255 -0.691,0.255c-0.27,0 -0.492,-0.069 -0.67,-0.212c-0.211,-0.166 -0.316,-0.394 -0.316,-0.684c0,-0.159 0.039,-0.306 0.119,-0.439c0.079,-0.134 0.204,-0.237 0.374,-0.308zm0.064,0.693c0,0.155 0.039,0.277 0.121,0.363c0.078,0.088 0.178,0.132 0.297,0.132c0.117,0 0.213,-0.042 0.291,-0.127c0.076,-0.083 0.113,-0.203 0.113,-0.363c0,-0.137 -0.039,-0.249 -0.115,-0.332c-0.078,-0.083 -0.178,-0.125 -0.295,-0.125c-0.139,0 -0.242,0.047 -0.311,0.143c-0.065,0.094 -0.101,0.197 -0.101,0.309zm0.053,-1.264c0,0.112 0.031,0.2 0.096,0.265c0.062,0.062 0.148,0.094 0.254,0.094c0.107,0 0.193,-0.032 0.258,-0.096s0.098,-0.151 0.098,-0.264c0,-0.106 -0.033,-0.191 -0.096,-0.256c-0.064,-0.063 -0.148,-0.095 -0.254,-0.095c-0.107,0 -0.195,0.031 -0.26,0.097c-0.065,0.065 -0.096,0.15 -0.096,0.255z" fill="#e9411d"/>
     <path id="svg_48" d="m307.127,135.418l0.547,-0.06c0.014,0.11 0.049,0.193 0.105,0.247s0.131,0.08 0.223,0.08c0.117,0 0.217,-0.054 0.299,-0.161c0.082,-0.106 0.133,-0.329 0.156,-0.668c-0.143,0.166 -0.32,0.248 -0.533,0.248c-0.232,0 -0.432,-0.09 -0.6,-0.27c-0.168,-0.179 -0.252,-0.412 -0.252,-0.698c0,-0.3 0.088,-0.54 0.266,-0.723c0.178,-0.185 0.404,-0.275 0.68,-0.275c0.299,0 0.543,0.116 0.734,0.347c0.193,0.231 0.289,0.612 0.289,1.142c0,0.54 -0.1,0.928 -0.301,1.167c-0.199,0.24 -0.459,0.358 -0.779,0.358c-0.232,0 -0.418,-0.062 -0.561,-0.184c-0.142,-0.123 -0.232,-0.305 -0.273,-0.55zm1.279,-1.235c0,-0.183 -0.041,-0.322 -0.125,-0.424c-0.084,-0.101 -0.182,-0.151 -0.291,-0.151c-0.105,0 -0.191,0.041 -0.26,0.124c-0.07,0.083 -0.104,0.218 -0.104,0.405c0,0.19 0.037,0.331 0.111,0.42c0.076,0.088 0.17,0.134 0.283,0.134c0.107,0 0.199,-0.044 0.273,-0.129c0.076,-0.086 0.113,-0.211 0.113,-0.379z" fill="#e9411d"/>
     <path id="svg_49" d="m318.473,136.101l-0.564,0l0,-2.131c-0.207,0.193 -0.449,0.336 -0.73,0.43l0,-0.514c0.146,-0.049 0.307,-0.14 0.48,-0.275c0.172,-0.135 0.291,-0.291 0.355,-0.472l0.459,0l0,2.962z" fill="#e9411d"/>
     <path id="svg_50" d="m320.273,133.139c0.285,0 0.51,0.103 0.67,0.306c0.191,0.241 0.287,0.643 0.287,1.202c0,0.557 -0.096,0.958 -0.289,1.202c-0.16,0.201 -0.383,0.303 -0.668,0.303c-0.287,0 -0.52,-0.111 -0.695,-0.332s-0.264,-0.614 -0.264,-1.18c0,-0.555 0.098,-0.955 0.291,-1.198c0.159,-0.203 0.383,-0.303 0.668,-0.303zm0,0.468c-0.068,0 -0.129,0.021 -0.184,0.065c-0.053,0.044 -0.096,0.122 -0.125,0.234c-0.039,0.146 -0.059,0.393 -0.059,0.739c0,0.345 0.018,0.583 0.053,0.713c0.035,0.129 0.08,0.215 0.133,0.258c0.053,0.044 0.113,0.065 0.182,0.065s0.129,-0.023 0.182,-0.065c0.055,-0.044 0.096,-0.122 0.127,-0.234c0.037,-0.146 0.057,-0.392 0.057,-0.736c0,-0.347 -0.018,-0.585 -0.053,-0.713c-0.033,-0.131 -0.078,-0.217 -0.131,-0.261s-0.113,-0.065 -0.182,-0.065z" fill="#e9411d"/>
     <path id="svg_51" d="m329.643,136.101l-0.564,0l0,-2.131c-0.207,0.193 -0.449,0.336 -0.73,0.43l0,-0.514c0.148,-0.049 0.309,-0.14 0.48,-0.275c0.174,-0.135 0.293,-0.291 0.357,-0.472l0.457,0l0,2.962z" fill="#e9411d"/>
     <path id="svg_52" d="m331.707,136.101l-0.564,0l0,-2.131c-0.207,0.193 -0.449,0.336 -0.73,0.43l0,-0.514c0.146,-0.049 0.307,-0.14 0.48,-0.275c0.174,-0.135 0.291,-0.291 0.355,-0.472l0.459,0l0,2.962z" fill="#e9411d"/>
     <path id="svg_53" d="m340.586,136.101l-0.564,0l0,-2.131c-0.207,0.193 -0.449,0.336 -0.73,0.43l0,-0.514c0.146,-0.049 0.307,-0.14 0.48,-0.275c0.174,-0.135 0.291,-0.291 0.355,-0.472l0.459,0l0,2.962z" fill="#e9411d"/>
     <path id="svg_54" d="m343.34,135.574l0,0.526l-1.98,0c0.02,-0.199 0.084,-0.388 0.191,-0.565c0.107,-0.177 0.32,-0.413 0.637,-0.706c0.254,-0.238 0.41,-0.399 0.469,-0.484c0.078,-0.115 0.117,-0.23 0.117,-0.345c0,-0.125 -0.035,-0.223 -0.102,-0.292c-0.068,-0.066 -0.162,-0.101 -0.281,-0.101c-0.117,0 -0.213,0.036 -0.281,0.107c-0.07,0.07 -0.109,0.189 -0.121,0.354l-0.562,-0.057c0.033,-0.312 0.139,-0.534 0.314,-0.669c0.178,-0.136 0.398,-0.204 0.664,-0.204c0.291,0 0.52,0.078 0.686,0.236c0.168,0.156 0.25,0.352 0.25,0.585c0,0.133 -0.023,0.258 -0.072,0.379c-0.047,0.12 -0.121,0.246 -0.225,0.378c-0.068,0.086 -0.191,0.212 -0.371,0.376c-0.178,0.162 -0.291,0.271 -0.338,0.325c-0.049,0.054 -0.088,0.106 -0.117,0.156l1.122,0l0,0.001z" fill="#e9411d"/>
     <path id="svg_55" d="m351.643,136.101l-0.564,0l0,-2.131c-0.207,0.193 -0.449,0.336 -0.73,0.43l0,-0.514c0.146,-0.049 0.307,-0.14 0.48,-0.275c0.174,-0.135 0.291,-0.291 0.355,-0.472l0.459,0l0,2.962z" fill="#e9411d"/>
     <path id="svg_56" d="m352.467,135.317l0.547,-0.066c0.02,0.14 0.064,0.247 0.141,0.32c0.078,0.073 0.17,0.111 0.279,0.111c0.117,0 0.215,-0.045 0.295,-0.134c0.078,-0.088 0.119,-0.207 0.119,-0.358c0,-0.142 -0.039,-0.254 -0.115,-0.337s-0.17,-0.126 -0.279,-0.126c-0.072,0 -0.158,0.015 -0.26,0.043l0.062,-0.461c0.154,0.005 0.27,-0.029 0.35,-0.1c0.082,-0.07 0.121,-0.164 0.121,-0.28c0,-0.099 -0.029,-0.179 -0.088,-0.237s-0.139,-0.088 -0.236,-0.088c-0.096,0 -0.178,0.032 -0.248,0.1c-0.068,0.068 -0.109,0.166 -0.123,0.295l-0.521,-0.09c0.037,-0.178 0.092,-0.321 0.164,-0.427c0.072,-0.107 0.174,-0.19 0.305,-0.253c0.133,-0.06 0.279,-0.091 0.441,-0.091c0.277,0 0.498,0.09 0.666,0.266c0.139,0.145 0.209,0.31 0.209,0.491c0,0.26 -0.143,0.466 -0.426,0.619c0.17,0.035 0.305,0.117 0.406,0.244c0.102,0.125 0.152,0.278 0.152,0.456c0,0.259 -0.096,0.48 -0.285,0.663c-0.189,0.182 -0.424,0.273 -0.705,0.273c-0.268,0 -0.488,-0.078 -0.664,-0.231s-0.278,-0.353 -0.307,-0.602z" fill="#e9411d"/>
     <path id="svg_57" d="m285.303,144.868l-0.564,0l0,-2.131c-0.207,0.193 -0.449,0.337 -0.73,0.43l0,-0.513c0.146,-0.049 0.307,-0.14 0.48,-0.275c0.172,-0.135 0.291,-0.291 0.355,-0.472l0.459,0l0,2.961z" fill="#e9411d"/>
     <path id="svg_58" d="m287.256,144.868l0,-0.594l-1.207,0l0,-0.495l1.279,-1.872l0.475,0l0,1.871l0.367,0l0,0.496l-0.367,0l0,0.594l-0.547,0zm0,-1.09l0,-1.009l-0.678,1.009l0.678,0z" fill="#e9411d"/>
     <path id="svg_59" d="m296.359,144.868l-0.564,0l0,-2.131c-0.207,0.193 -0.449,0.337 -0.73,0.43l0,-0.513c0.146,-0.049 0.307,-0.14 0.48,-0.275c0.172,-0.135 0.291,-0.291 0.355,-0.472l0.459,0l0,2.961z" fill="#e9411d"/>
     <path id="svg_60" d="m297.213,144.11l0.562,-0.059c0.016,0.127 0.064,0.228 0.143,0.303c0.08,0.074 0.17,0.112 0.273,0.112c0.119,0 0.219,-0.049 0.301,-0.146c0.082,-0.096 0.123,-0.239 0.123,-0.433c0,-0.181 -0.041,-0.316 -0.123,-0.407c-0.08,-0.092 -0.186,-0.135 -0.316,-0.135c-0.162,0 -0.309,0.071 -0.438,0.215l-0.457,-0.067l0.289,-1.535l1.494,0l0,0.529l-1.066,0l-0.088,0.501c0.127,-0.062 0.254,-0.094 0.387,-0.094c0.25,0 0.463,0.091 0.637,0.273c0.176,0.182 0.262,0.418 0.262,0.71c0,0.242 -0.07,0.459 -0.211,0.649c-0.191,0.261 -0.457,0.391 -0.799,0.391c-0.271,0 -0.494,-0.073 -0.666,-0.22s-0.274,-0.34 -0.307,-0.587z" fill="#e9411d"/>
     <path id="svg_61" d="m307.416,144.868l-0.566,0l0,-2.131c-0.207,0.193 -0.449,0.337 -0.73,0.43l0,-0.513c0.148,-0.049 0.309,-0.14 0.482,-0.275c0.172,-0.135 0.291,-0.291 0.355,-0.472l0.459,0l0,2.961z" fill="#e9411d"/>
     <path id="svg_62" d="m310.176,142.642l-0.549,0.06c-0.012,-0.112 -0.047,-0.195 -0.104,-0.249s-0.129,-0.08 -0.219,-0.08c-0.119,0 -0.221,0.055 -0.305,0.16c-0.082,0.107 -0.133,0.33 -0.154,0.671c0.141,-0.166 0.316,-0.249 0.525,-0.249c0.236,0 0.438,0.09 0.605,0.269c0.17,0.181 0.254,0.412 0.254,0.696c0,0.302 -0.09,0.544 -0.266,0.727c-0.178,0.183 -0.406,0.273 -0.684,0.273c-0.297,0 -0.541,-0.115 -0.734,-0.347c-0.191,-0.232 -0.287,-0.61 -0.287,-1.138c0,-0.541 0.1,-0.93 0.301,-1.17c0.199,-0.237 0.459,-0.357 0.777,-0.357c0.225,0 0.41,0.063 0.557,0.188c0.148,0.126 0.242,0.307 0.283,0.546zm-1.283,1.232c0,0.184 0.043,0.325 0.129,0.427c0.084,0.099 0.18,0.149 0.289,0.149c0.104,0 0.191,-0.041 0.262,-0.124c0.07,-0.081 0.104,-0.215 0.104,-0.401c0,-0.191 -0.037,-0.333 -0.111,-0.421c-0.076,-0.089 -0.17,-0.135 -0.283,-0.135c-0.107,0 -0.199,0.044 -0.275,0.129c-0.076,0.084 -0.115,0.21 -0.115,0.376z" fill="#e9411d"/>
     <path id="svg_63" d="m318.473,144.868l-0.566,0l0,-2.131c-0.207,0.193 -0.449,0.337 -0.73,0.43l0,-0.513c0.148,-0.049 0.309,-0.14 0.482,-0.275c0.172,-0.135 0.291,-0.291 0.355,-0.472l0.459,0l0,2.961z" fill="#e9411d"/>
     <path id="svg_64" d="m319.316,142.485l0,-0.526l1.934,0l0,0.41c-0.16,0.158 -0.322,0.383 -0.488,0.676c-0.164,0.295 -0.289,0.607 -0.375,0.938c-0.088,0.33 -0.129,0.625 -0.129,0.885l-0.545,0c0.01,-0.408 0.094,-0.823 0.252,-1.247c0.16,-0.423 0.371,-0.803 0.637,-1.136l-1.286,0z" fill="#e9411d"/>
     <path id="svg_65" d="m329.529,144.868l-0.566,0l0,-2.131c-0.207,0.193 -0.449,0.337 -0.73,0.43l0,-0.513c0.148,-0.049 0.309,-0.14 0.482,-0.275c0.172,-0.135 0.291,-0.291 0.355,-0.472l0.459,0l0,2.961z" fill="#e9411d"/>
     <path id="svg_66" d="m330.857,143.278c-0.145,-0.062 -0.252,-0.146 -0.318,-0.256c-0.066,-0.107 -0.1,-0.227 -0.1,-0.355c0,-0.22 0.078,-0.4 0.23,-0.545c0.154,-0.144 0.371,-0.215 0.656,-0.215c0.279,0 0.496,0.071 0.65,0.215c0.156,0.145 0.234,0.325 0.234,0.545c0,0.137 -0.037,0.26 -0.107,0.365c-0.07,0.107 -0.172,0.188 -0.299,0.246c0.162,0.064 0.287,0.16 0.373,0.286c0.084,0.127 0.127,0.272 0.127,0.437c0,0.271 -0.088,0.493 -0.26,0.664c-0.174,0.171 -0.406,0.256 -0.693,0.256c-0.27,0 -0.492,-0.07 -0.67,-0.212c-0.211,-0.166 -0.316,-0.394 -0.316,-0.684c0,-0.159 0.039,-0.306 0.119,-0.439c0.079,-0.134 0.205,-0.236 0.374,-0.308zm0.065,0.694c0,0.154 0.041,0.276 0.121,0.363c0.078,0.088 0.18,0.132 0.297,0.132s0.215,-0.043 0.291,-0.127c0.076,-0.083 0.115,-0.204 0.115,-0.363c0,-0.137 -0.039,-0.249 -0.117,-0.332s-0.176,-0.126 -0.295,-0.126c-0.139,0 -0.242,0.048 -0.311,0.144c-0.066,0.094 -0.101,0.196 -0.101,0.309zm0.053,-1.264c0,0.112 0.033,0.2 0.096,0.264c0.064,0.062 0.148,0.095 0.256,0.095c0.105,0 0.191,-0.032 0.256,-0.097c0.064,-0.062 0.098,-0.151 0.098,-0.264c0,-0.105 -0.033,-0.19 -0.096,-0.256c-0.064,-0.062 -0.148,-0.094 -0.254,-0.094c-0.107,0 -0.195,0.031 -0.26,0.096c-0.063,0.066 -0.096,0.151 -0.096,0.256z" fill="#e9411d"/>
     <path id="svg_67" d="m340.586,144.868l-0.566,0l0,-2.131c-0.207,0.193 -0.449,0.337 -0.73,0.43l0,-0.513c0.148,-0.049 0.309,-0.14 0.482,-0.275c0.172,-0.135 0.291,-0.291 0.355,-0.472l0.459,0l0,2.961z" fill="#e9411d"/>
     <path id="svg_68" d="m341.441,144.187l0.549,-0.061c0.012,0.111 0.047,0.194 0.104,0.248s0.131,0.079 0.225,0.079c0.115,0 0.215,-0.054 0.297,-0.161c0.082,-0.105 0.135,-0.328 0.156,-0.667c-0.143,0.166 -0.32,0.247 -0.533,0.247c-0.232,0 -0.432,-0.09 -0.6,-0.269s-0.252,-0.412 -0.252,-0.698c0,-0.3 0.088,-0.541 0.266,-0.723c0.178,-0.185 0.404,-0.275 0.68,-0.275c0.299,0 0.545,0.115 0.734,0.347c0.193,0.231 0.289,0.612 0.289,1.142c0,0.54 -0.1,0.928 -0.301,1.167c-0.199,0.239 -0.459,0.358 -0.779,0.358c-0.23,0 -0.418,-0.062 -0.559,-0.184c-0.143,-0.124 -0.235,-0.306 -0.276,-0.55zm1.28,-1.237c0,-0.182 -0.041,-0.322 -0.125,-0.423s-0.18,-0.151 -0.291,-0.151c-0.104,0 -0.191,0.041 -0.26,0.123c-0.068,0.084 -0.104,0.219 -0.104,0.406c0,0.19 0.037,0.33 0.113,0.42c0.074,0.088 0.168,0.133 0.281,0.133c0.107,0 0.199,-0.043 0.273,-0.128c0.078,-0.087 0.113,-0.212 0.113,-0.38z" fill="#e9411d"/>
     <path id="svg_69" d="m352.105,144.343l0,0.525l-1.982,0c0.021,-0.198 0.086,-0.387 0.193,-0.564s0.318,-0.414 0.637,-0.707c0.254,-0.237 0.41,-0.398 0.469,-0.483c0.076,-0.115 0.115,-0.231 0.115,-0.345c0,-0.126 -0.033,-0.224 -0.102,-0.292c-0.066,-0.066 -0.16,-0.101 -0.279,-0.101s-0.213,0.035 -0.281,0.107c-0.07,0.07 -0.111,0.188 -0.123,0.354l-0.562,-0.058c0.033,-0.311 0.139,-0.534 0.316,-0.669s0.398,-0.203 0.664,-0.203c0.291,0 0.52,0.078 0.686,0.236c0.166,0.156 0.25,0.352 0.25,0.584c0,0.134 -0.023,0.259 -0.072,0.379c-0.047,0.121 -0.123,0.246 -0.227,0.378c-0.068,0.087 -0.191,0.212 -0.369,0.376c-0.18,0.163 -0.291,0.272 -0.34,0.326c-0.047,0.054 -0.086,0.105 -0.115,0.156l1.122,0l0,0.001z" fill="#e9411d"/>
     <path id="svg_70" d="m353.443,141.907c0.285,0 0.508,0.103 0.668,0.306c0.193,0.241 0.289,0.642 0.289,1.202c0,0.557 -0.098,0.957 -0.291,1.201c-0.158,0.202 -0.381,0.303 -0.666,0.303c-0.289,0 -0.52,-0.11 -0.695,-0.332c-0.176,-0.22 -0.264,-0.613 -0.264,-1.179c0,-0.556 0.098,-0.956 0.289,-1.198c0.161,-0.202 0.383,-0.303 0.67,-0.303zm0,0.469c-0.068,0 -0.131,0.021 -0.184,0.064c-0.055,0.045 -0.096,0.123 -0.125,0.235c-0.039,0.146 -0.059,0.392 -0.059,0.739c0,0.345 0.018,0.582 0.053,0.713c0.035,0.129 0.078,0.215 0.131,0.257c0.053,0.044 0.115,0.065 0.184,0.065s0.129,-0.022 0.182,-0.065c0.055,-0.044 0.096,-0.122 0.125,-0.234c0.039,-0.145 0.059,-0.391 0.059,-0.735c0,-0.348 -0.018,-0.585 -0.053,-0.714c-0.035,-0.13 -0.078,-0.216 -0.131,-0.261c-0.055,-0.043 -0.113,-0.064 -0.182,-0.064z" fill="#e9411d"/>
     <path id="svg_71" d="m285.766,153.11l0,0.525l-1.982,0c0.021,-0.199 0.086,-0.387 0.193,-0.564c0.107,-0.177 0.32,-0.413 0.637,-0.708c0.254,-0.235 0.41,-0.397 0.469,-0.481c0.078,-0.117 0.117,-0.233 0.117,-0.348c0,-0.125 -0.035,-0.221 -0.104,-0.289c-0.066,-0.068 -0.16,-0.102 -0.279,-0.102c-0.117,0 -0.213,0.035 -0.281,0.106c-0.07,0.071 -0.109,0.188 -0.121,0.354l-0.562,-0.056c0.033,-0.311 0.139,-0.534 0.314,-0.669c0.178,-0.138 0.398,-0.204 0.664,-0.204c0.291,0 0.52,0.078 0.686,0.234c0.168,0.158 0.25,0.352 0.25,0.586c0,0.133 -0.023,0.26 -0.072,0.38c-0.047,0.119 -0.123,0.246 -0.227,0.376c-0.068,0.088 -0.189,0.214 -0.369,0.377c-0.178,0.164 -0.291,0.273 -0.34,0.325c-0.047,0.054 -0.086,0.107 -0.115,0.157l1.122,0l0,0.001z" fill="#e9411d"/>
     <path id="svg_72" d="m287.594,153.636l-0.564,0l0,-2.131c-0.207,0.194 -0.451,0.336 -0.73,0.429l0,-0.513c0.146,-0.049 0.307,-0.141 0.48,-0.275c0.172,-0.133 0.291,-0.291 0.355,-0.471l0.459,0l0,2.961z" fill="#e9411d"/>
     <path id="svg_73" d="m296.822,153.11l0,0.525l-1.98,0c0.02,-0.199 0.084,-0.387 0.191,-0.564c0.107,-0.177 0.32,-0.413 0.637,-0.708c0.254,-0.235 0.41,-0.397 0.469,-0.481c0.078,-0.117 0.117,-0.233 0.117,-0.348c0,-0.125 -0.035,-0.221 -0.104,-0.289c-0.066,-0.068 -0.16,-0.102 -0.279,-0.102c-0.117,0 -0.213,0.035 -0.281,0.106c-0.07,0.071 -0.109,0.188 -0.121,0.354l-0.562,-0.056c0.033,-0.311 0.139,-0.534 0.314,-0.669c0.178,-0.138 0.398,-0.204 0.664,-0.204c0.291,0 0.52,0.078 0.686,0.234c0.168,0.158 0.25,0.352 0.25,0.586c0,0.133 -0.023,0.26 -0.072,0.38c-0.047,0.119 -0.123,0.246 -0.225,0.376c-0.068,0.088 -0.191,0.214 -0.371,0.377c-0.178,0.164 -0.291,0.273 -0.34,0.325c-0.047,0.054 -0.086,0.107 -0.115,0.157l1.122,0l0,0.001z" fill="#e9411d"/>
     <path id="svg_74" d="m299.113,153.11l0,0.525l-1.982,0c0.021,-0.199 0.086,-0.387 0.193,-0.564c0.107,-0.177 0.32,-0.413 0.637,-0.708c0.254,-0.235 0.41,-0.397 0.469,-0.481c0.078,-0.117 0.117,-0.233 0.117,-0.348c0,-0.125 -0.035,-0.221 -0.104,-0.289c-0.066,-0.068 -0.16,-0.102 -0.279,-0.102c-0.117,0 -0.213,0.035 -0.281,0.106c-0.07,0.071 -0.109,0.188 -0.121,0.354l-0.562,-0.056c0.033,-0.311 0.139,-0.534 0.314,-0.669c0.178,-0.138 0.398,-0.204 0.664,-0.204c0.291,0 0.52,0.078 0.686,0.234c0.168,0.158 0.25,0.352 0.25,0.586c0,0.133 -0.023,0.26 -0.072,0.38c-0.047,0.119 -0.123,0.246 -0.227,0.376c-0.068,0.088 -0.189,0.214 -0.369,0.377c-0.178,0.164 -0.291,0.273 -0.34,0.325c-0.047,0.054 -0.086,0.107 -0.115,0.157l1.122,0l0,0.001z" fill="#e9411d"/>
     <path id="svg_75" d="m307.879,153.11l0,0.525l-1.982,0c0.021,-0.199 0.086,-0.387 0.193,-0.564c0.107,-0.177 0.318,-0.413 0.635,-0.708c0.256,-0.235 0.412,-0.397 0.471,-0.481c0.076,-0.117 0.115,-0.233 0.115,-0.348c0,-0.125 -0.033,-0.221 -0.102,-0.289s-0.16,-0.102 -0.279,-0.102s-0.213,0.035 -0.283,0.106c-0.068,0.071 -0.109,0.188 -0.121,0.354l-0.562,-0.056c0.033,-0.311 0.139,-0.534 0.316,-0.669c0.176,-0.138 0.398,-0.204 0.664,-0.204c0.291,0 0.52,0.078 0.686,0.234c0.166,0.158 0.25,0.352 0.25,0.586c0,0.133 -0.023,0.26 -0.072,0.38c-0.047,0.119 -0.123,0.246 -0.227,0.376c-0.068,0.088 -0.191,0.214 -0.371,0.377c-0.178,0.164 -0.289,0.273 -0.338,0.325c-0.047,0.054 -0.086,0.107 -0.115,0.157l1.122,0l0,0.001z" fill="#e9411d"/>
     <path id="svg_76" d="m308.24,152.854l0.547,-0.066c0.018,0.14 0.064,0.245 0.141,0.319s0.17,0.11 0.277,0.11c0.117,0 0.215,-0.044 0.295,-0.132c0.08,-0.09 0.119,-0.209 0.119,-0.358c0,-0.142 -0.037,-0.256 -0.113,-0.339s-0.17,-0.123 -0.279,-0.123c-0.074,0 -0.16,0.013 -0.26,0.042l0.062,-0.461c0.152,0.003 0.27,-0.029 0.35,-0.1c0.08,-0.071 0.121,-0.164 0.121,-0.281c0,-0.1 -0.029,-0.178 -0.09,-0.237c-0.059,-0.059 -0.137,-0.088 -0.234,-0.088c-0.096,0 -0.18,0.033 -0.248,0.101c-0.068,0.066 -0.109,0.164 -0.125,0.293l-0.521,-0.088c0.037,-0.179 0.092,-0.321 0.166,-0.429c0.072,-0.105 0.174,-0.19 0.305,-0.25c0.131,-0.062 0.277,-0.092 0.439,-0.092c0.277,0 0.5,0.088 0.668,0.266c0.139,0.145 0.207,0.308 0.207,0.49c0,0.259 -0.141,0.466 -0.424,0.62c0.168,0.036 0.303,0.117 0.404,0.243c0.102,0.127 0.152,0.278 0.152,0.457c0,0.259 -0.094,0.479 -0.283,0.661s-0.426,0.273 -0.707,0.273c-0.268,0 -0.486,-0.076 -0.664,-0.229c-0.176,-0.154 -0.277,-0.355 -0.305,-0.602z" fill="#e9411d"/>
     <path id="svg_77" d="m318.936,153.11l0,0.525l-1.982,0c0.021,-0.199 0.086,-0.387 0.193,-0.564c0.107,-0.177 0.318,-0.413 0.635,-0.708c0.256,-0.235 0.412,-0.397 0.471,-0.481c0.076,-0.117 0.115,-0.233 0.115,-0.348c0,-0.125 -0.033,-0.221 -0.102,-0.289s-0.16,-0.102 -0.279,-0.102s-0.213,0.035 -0.283,0.106c-0.068,0.071 -0.109,0.188 -0.121,0.354l-0.562,-0.056c0.033,-0.311 0.139,-0.534 0.316,-0.669c0.176,-0.138 0.398,-0.204 0.664,-0.204c0.291,0 0.52,0.078 0.686,0.234c0.166,0.158 0.25,0.352 0.25,0.586c0,0.133 -0.023,0.26 -0.072,0.38c-0.047,0.119 -0.123,0.246 -0.227,0.376c-0.068,0.088 -0.191,0.214 -0.371,0.377c-0.178,0.164 -0.289,0.273 -0.338,0.325c-0.047,0.054 -0.086,0.107 -0.115,0.157l1.122,0l0,0.001z" fill="#e9411d"/>
     <path id="svg_78" d="m320.426,153.636l0,-0.594l-1.207,0l0,-0.494l1.279,-1.873l0.475,0l0,1.871l0.365,0l0,0.496l-0.365,0l0,0.594l-0.547,0zm0,-1.09l0,-1.008l-0.678,1.008l0.678,0z" fill="#e9411d"/>
     <path id="svg_79" d="m329.992,153.11l0,0.525l-1.982,0c0.021,-0.199 0.086,-0.387 0.193,-0.564c0.107,-0.177 0.318,-0.413 0.635,-0.708c0.256,-0.235 0.412,-0.397 0.471,-0.481c0.076,-0.117 0.115,-0.233 0.115,-0.348c0,-0.125 -0.033,-0.221 -0.102,-0.289s-0.16,-0.102 -0.279,-0.102s-0.213,0.035 -0.283,0.106c-0.068,0.071 -0.109,0.188 -0.121,0.354l-0.562,-0.056c0.033,-0.311 0.139,-0.534 0.316,-0.669c0.178,-0.138 0.398,-0.204 0.664,-0.204c0.291,0 0.52,0.078 0.686,0.234c0.166,0.158 0.25,0.352 0.25,0.586c0,0.133 -0.023,0.26 -0.072,0.38c-0.047,0.119 -0.123,0.246 -0.227,0.376c-0.068,0.088 -0.191,0.214 -0.369,0.377c-0.18,0.164 -0.291,0.273 -0.34,0.325c-0.047,0.054 -0.086,0.107 -0.115,0.157l1.122,0l0,0.001z" fill="#e9411d"/>
     <path id="svg_80" d="m330.381,152.878l0.564,-0.059c0.016,0.127 0.062,0.229 0.143,0.303c0.078,0.073 0.17,0.111 0.273,0.111c0.117,0 0.219,-0.048 0.299,-0.144c0.082,-0.097 0.123,-0.241 0.123,-0.433c0,-0.183 -0.041,-0.318 -0.121,-0.409c-0.082,-0.09 -0.188,-0.136 -0.316,-0.136c-0.162,0 -0.309,0.072 -0.438,0.215l-0.459,-0.066l0.291,-1.533l1.494,0l0,0.529l-1.066,0l-0.088,0.499c0.125,-0.062 0.254,-0.094 0.387,-0.094c0.25,0 0.463,0.091 0.637,0.273s0.262,0.42 0.262,0.71c0,0.244 -0.07,0.461 -0.211,0.649c-0.193,0.261 -0.459,0.391 -0.799,0.391c-0.273,0 -0.494,-0.073 -0.666,-0.22c-0.172,-0.143 -0.276,-0.34 -0.309,-0.586z" fill="#e9411d"/>
     <path id="svg_81" d="m341.049,153.11l0,0.525l-1.982,0c0.021,-0.199 0.086,-0.387 0.193,-0.564c0.107,-0.177 0.318,-0.413 0.637,-0.708c0.254,-0.235 0.41,-0.397 0.469,-0.481c0.076,-0.117 0.115,-0.233 0.115,-0.348c0,-0.125 -0.033,-0.221 -0.102,-0.289c-0.066,-0.068 -0.16,-0.102 -0.279,-0.102s-0.213,0.035 -0.283,0.106c-0.068,0.071 -0.109,0.188 -0.121,0.354l-0.562,-0.056c0.033,-0.311 0.139,-0.534 0.316,-0.669c0.178,-0.138 0.398,-0.204 0.664,-0.204c0.291,0 0.52,0.078 0.686,0.234c0.166,0.158 0.25,0.352 0.25,0.586c0,0.133 -0.023,0.26 -0.072,0.38c-0.047,0.119 -0.123,0.246 -0.227,0.376c-0.068,0.088 -0.191,0.214 -0.369,0.377c-0.18,0.164 -0.291,0.273 -0.34,0.325c-0.047,0.054 -0.086,0.107 -0.115,0.157l1.122,0l0,0.001z" fill="#e9411d"/>
     <path id="svg_82" d="m343.346,151.409l-0.547,0.061c-0.014,-0.112 -0.049,-0.197 -0.105,-0.249c-0.057,-0.054 -0.129,-0.081 -0.219,-0.081c-0.119,0 -0.221,0.053 -0.303,0.16c-0.084,0.107 -0.135,0.331 -0.156,0.67c0.141,-0.166 0.316,-0.249 0.525,-0.249c0.236,0 0.438,0.089 0.605,0.271c0.17,0.179 0.254,0.411 0.254,0.695c0,0.301 -0.09,0.543 -0.266,0.726c-0.178,0.183 -0.404,0.273 -0.684,0.273c-0.297,0 -0.541,-0.115 -0.734,-0.347c-0.191,-0.231 -0.287,-0.61 -0.287,-1.139c0,-0.538 0.102,-0.93 0.301,-1.167c0.199,-0.239 0.459,-0.358 0.777,-0.358c0.225,0 0.41,0.062 0.557,0.188s0.241,0.307 0.282,0.546zm-1.282,1.233c0,0.185 0.041,0.326 0.127,0.426c0.084,0.101 0.18,0.149 0.289,0.149c0.104,0 0.191,-0.041 0.262,-0.122c0.07,-0.082 0.104,-0.217 0.104,-0.402c0,-0.192 -0.037,-0.332 -0.111,-0.422c-0.076,-0.09 -0.17,-0.133 -0.283,-0.133c-0.107,0 -0.199,0.042 -0.275,0.127c-0.075,0.086 -0.113,0.211 -0.113,0.377z" fill="#e9411d"/>
     <path id="svg_83" d="m352.105,153.11l0,0.525l-1.982,0c0.021,-0.199 0.086,-0.387 0.193,-0.564c0.107,-0.177 0.318,-0.413 0.637,-0.708c0.254,-0.235 0.41,-0.397 0.469,-0.481c0.076,-0.117 0.115,-0.233 0.115,-0.348c0,-0.125 -0.033,-0.221 -0.102,-0.289c-0.066,-0.068 -0.16,-0.102 -0.279,-0.102s-0.213,0.035 -0.281,0.106c-0.07,0.071 -0.111,0.188 -0.123,0.354l-0.562,-0.056c0.033,-0.311 0.139,-0.534 0.316,-0.669c0.178,-0.138 0.398,-0.204 0.664,-0.204c0.291,0 0.52,0.078 0.686,0.234c0.166,0.158 0.25,0.352 0.25,0.586c0,0.133 -0.023,0.26 -0.072,0.38c-0.047,0.119 -0.123,0.246 -0.227,0.376c-0.068,0.088 -0.191,0.214 -0.369,0.377c-0.18,0.164 -0.291,0.273 -0.34,0.325c-0.047,0.054 -0.086,0.107 -0.115,0.157l1.122,0l0,0.001z" fill="#e9411d"/>
     <path id="svg_84" d="m352.486,151.251l0,-0.523l1.934,0l0,0.41c-0.16,0.156 -0.322,0.383 -0.486,0.676c-0.166,0.293 -0.291,0.605 -0.377,0.936c-0.088,0.331 -0.129,0.626 -0.129,0.887l-0.545,0c0.01,-0.407 0.094,-0.822 0.252,-1.248c0.16,-0.423 0.373,-0.803 0.637,-1.137l-1.286,0l0,-0.001z" fill="#e9411d"/>
     <path id="svg_85" d="m284.621,161.879l0,0.524l-1.982,0c0.021,-0.198 0.086,-0.386 0.193,-0.563c0.107,-0.177 0.32,-0.413 0.637,-0.708c0.254,-0.236 0.41,-0.397 0.469,-0.482c0.076,-0.117 0.115,-0.232 0.115,-0.347c0,-0.125 -0.033,-0.222 -0.102,-0.29c-0.066,-0.068 -0.16,-0.101 -0.279,-0.101c-0.117,0 -0.213,0.034 -0.281,0.106c-0.07,0.071 -0.111,0.188 -0.121,0.353l-0.562,-0.056c0.033,-0.311 0.137,-0.533 0.314,-0.669c0.178,-0.137 0.398,-0.203 0.664,-0.203c0.291,0 0.52,0.078 0.686,0.234c0.166,0.158 0.25,0.352 0.25,0.586c0,0.132 -0.023,0.259 -0.072,0.38c-0.047,0.119 -0.123,0.246 -0.227,0.376c-0.068,0.088 -0.191,0.213 -0.369,0.376c-0.18,0.164 -0.291,0.273 -0.34,0.326c-0.047,0.053 -0.086,0.107 -0.115,0.157l1.122,0l0,0.001z" fill="#e9411d"/>
     <path id="svg_86" d="m285.488,160.812c-0.146,-0.062 -0.254,-0.146 -0.318,-0.254c-0.068,-0.109 -0.102,-0.227 -0.102,-0.354c0,-0.221 0.078,-0.402 0.23,-0.546c0.154,-0.144 0.373,-0.215 0.656,-0.215c0.279,0 0.496,0.071 0.652,0.215c0.154,0.144 0.232,0.325 0.232,0.546c0,0.137 -0.035,0.257 -0.107,0.364c-0.07,0.105 -0.17,0.188 -0.299,0.244c0.164,0.065 0.287,0.161 0.373,0.288c0.086,0.125 0.127,0.271 0.127,0.437c0,0.272 -0.086,0.493 -0.26,0.663c-0.174,0.171 -0.404,0.256 -0.693,0.256c-0.268,0 -0.492,-0.07 -0.67,-0.211c-0.211,-0.166 -0.316,-0.394 -0.316,-0.684c0,-0.159 0.041,-0.307 0.119,-0.439c0.081,-0.134 0.204,-0.236 0.376,-0.31zm0.063,0.694c0,0.157 0.041,0.277 0.121,0.365c0.08,0.086 0.18,0.13 0.299,0.13c0.117,0 0.213,-0.042 0.289,-0.125c0.076,-0.085 0.115,-0.205 0.115,-0.363c0,-0.139 -0.039,-0.249 -0.117,-0.332c-0.078,-0.085 -0.176,-0.127 -0.295,-0.127c-0.139,0 -0.242,0.049 -0.309,0.143c-0.068,0.094 -0.103,0.199 -0.103,0.309zm0.054,-1.263c0,0.113 0.031,0.201 0.094,0.264c0.064,0.063 0.15,0.094 0.256,0.094s0.193,-0.03 0.256,-0.094c0.064,-0.064 0.098,-0.153 0.098,-0.266c0,-0.105 -0.033,-0.19 -0.096,-0.254c-0.064,-0.063 -0.148,-0.097 -0.252,-0.097c-0.109,0 -0.195,0.033 -0.26,0.099c-0.064,0.063 -0.096,0.148 -0.096,0.254z" fill="#e9411d"/>
    </g>
    <g id="svg_87">
     <path id="svg_88" d="m298.172,127.314l-0.564,0l0,-2.132c-0.207,0.194 -0.449,0.338 -0.73,0.43l0,-0.512c0.146,-0.049 0.309,-0.141 0.48,-0.275c0.174,-0.136 0.293,-0.292 0.357,-0.473l0.457,0l0,2.962z" fill="#e9411d"/>
     <path id="svg_89" d="m309.691,126.788l0,0.526l-1.98,0c0.021,-0.198 0.086,-0.388 0.193,-0.565c0.107,-0.177 0.318,-0.413 0.635,-0.706c0.256,-0.238 0.412,-0.399 0.469,-0.483c0.078,-0.116 0.117,-0.231 0.117,-0.346c0,-0.125 -0.035,-0.223 -0.102,-0.291c-0.068,-0.067 -0.162,-0.102 -0.281,-0.102c-0.117,0 -0.211,0.036 -0.281,0.107c-0.07,0.07 -0.109,0.189 -0.121,0.354l-0.562,-0.057c0.033,-0.312 0.139,-0.534 0.314,-0.67c0.178,-0.135 0.4,-0.203 0.664,-0.203c0.291,0 0.52,0.078 0.686,0.236c0.168,0.156 0.25,0.352 0.25,0.584c0,0.134 -0.023,0.26 -0.07,0.38s-0.123,0.246 -0.227,0.378c-0.068,0.086 -0.191,0.211 -0.371,0.376c-0.178,0.163 -0.291,0.271 -0.338,0.325c-0.047,0.055 -0.086,0.106 -0.115,0.156l1.12,0l0,0.001z" fill="#e9411d"/>
     <path id="svg_90" d="m318.82,126.531l0.547,-0.066c0.018,0.14 0.064,0.247 0.141,0.32s0.168,0.11 0.277,0.11c0.117,0 0.215,-0.043 0.295,-0.133c0.08,-0.088 0.119,-0.207 0.119,-0.358c0,-0.142 -0.039,-0.254 -0.115,-0.337c-0.074,-0.083 -0.168,-0.125 -0.279,-0.125c-0.072,0 -0.158,0.014 -0.26,0.042l0.062,-0.461c0.154,0.005 0.27,-0.029 0.352,-0.1c0.08,-0.069 0.119,-0.164 0.119,-0.28c0,-0.099 -0.029,-0.179 -0.088,-0.237s-0.139,-0.088 -0.236,-0.088c-0.096,0 -0.178,0.032 -0.246,0.1c-0.068,0.068 -0.111,0.166 -0.125,0.294l-0.521,-0.089c0.037,-0.178 0.092,-0.321 0.164,-0.427c0.072,-0.107 0.176,-0.19 0.307,-0.252c0.131,-0.061 0.277,-0.092 0.439,-0.092c0.277,0 0.5,0.09 0.668,0.266c0.137,0.145 0.207,0.31 0.207,0.492c0,0.258 -0.143,0.465 -0.426,0.618c0.17,0.036 0.305,0.117 0.406,0.244c0.102,0.126 0.152,0.278 0.152,0.456c0,0.259 -0.096,0.48 -0.285,0.662c-0.188,0.183 -0.424,0.274 -0.705,0.274c-0.268,0 -0.488,-0.078 -0.664,-0.231s-0.277,-0.353 -0.305,-0.602z" fill="#e9411d"/>
     <path id="svg_91" d="m331.004,127.314l0,-0.595l-1.205,0l0,-0.494l1.277,-1.873l0.475,0l0,1.871l0.367,0l0,0.496l-0.367,0l0,0.595l-0.547,0zm0,-1.09l0,-1.008l-0.678,1.008l0.678,0z" fill="#e9411d"/>
     <path id="svg_92" d="m340.961,126.556l0.564,-0.059c0.016,0.127 0.062,0.229 0.143,0.303c0.078,0.075 0.17,0.112 0.273,0.112c0.117,0 0.217,-0.049 0.299,-0.145c0.082,-0.097 0.123,-0.239 0.123,-0.434c0,-0.181 -0.041,-0.315 -0.121,-0.407c-0.082,-0.091 -0.188,-0.135 -0.318,-0.135c-0.162,0 -0.307,0.072 -0.436,0.215l-0.459,-0.066l0.291,-1.535l1.492,0l0,0.528l-1.064,0l-0.09,0.502c0.127,-0.063 0.256,-0.095 0.387,-0.095c0.252,0 0.465,0.092 0.639,0.273c0.174,0.183 0.262,0.419 0.262,0.71c0,0.243 -0.07,0.46 -0.211,0.649c-0.193,0.261 -0.459,0.392 -0.799,0.392c-0.273,0 -0.494,-0.073 -0.666,-0.22s-0.276,-0.34 -0.309,-0.588z" fill="#e9411d"/>
     <path id="svg_93" d="m353.924,125.087l-0.547,0.061c-0.012,-0.112 -0.047,-0.195 -0.104,-0.249s-0.129,-0.08 -0.221,-0.08c-0.117,0 -0.219,0.054 -0.303,0.159c-0.082,0.107 -0.133,0.331 -0.154,0.671c0.141,-0.166 0.314,-0.249 0.525,-0.249c0.234,0 0.438,0.09 0.605,0.269c0.168,0.181 0.252,0.412 0.252,0.697c0,0.302 -0.088,0.544 -0.266,0.726c-0.176,0.183 -0.404,0.274 -0.682,0.274c-0.297,0 -0.541,-0.116 -0.734,-0.347c-0.191,-0.233 -0.287,-0.611 -0.287,-1.139c0,-0.541 0.1,-0.93 0.299,-1.169c0.201,-0.237 0.459,-0.358 0.779,-0.358c0.225,0 0.41,0.063 0.557,0.189c0.148,0.125 0.242,0.308 0.281,0.545zm-1.281,1.232c0,0.185 0.043,0.326 0.127,0.427c0.086,0.1 0.182,0.149 0.291,0.149c0.104,0 0.191,-0.04 0.262,-0.123c0.068,-0.082 0.104,-0.215 0.104,-0.402c0,-0.19 -0.037,-0.332 -0.113,-0.42c-0.074,-0.09 -0.168,-0.136 -0.281,-0.136c-0.107,0 -0.199,0.044 -0.275,0.129s-0.115,0.21 -0.115,0.376z" fill="#e9411d"/>
    </g>
    <g id="svg_94">
     <g id="svg_95">
      <path id="svg_96" d="m284.127,116.288l0.559,-0.056c0.035,0.188 0.104,0.327 0.205,0.415c0.104,0.088 0.242,0.132 0.418,0.132c0.186,0 0.324,-0.039 0.418,-0.117s0.143,-0.171 0.143,-0.274c0,-0.068 -0.021,-0.126 -0.061,-0.173c-0.039,-0.048 -0.107,-0.088 -0.207,-0.124c-0.066,-0.022 -0.221,-0.063 -0.461,-0.124c-0.309,-0.076 -0.525,-0.171 -0.648,-0.281c-0.174,-0.156 -0.264,-0.349 -0.264,-0.573c0,-0.145 0.043,-0.281 0.125,-0.407c0.082,-0.127 0.199,-0.223 0.355,-0.29c0.154,-0.064 0.342,-0.098 0.561,-0.098c0.357,0 0.627,0.078 0.807,0.234c0.182,0.156 0.277,0.367 0.285,0.629l-0.576,0.024c-0.023,-0.146 -0.076,-0.253 -0.156,-0.315c-0.082,-0.064 -0.203,-0.097 -0.365,-0.097c-0.168,0 -0.299,0.034 -0.393,0.103c-0.061,0.044 -0.092,0.103 -0.092,0.178c0,0.066 0.029,0.125 0.086,0.173c0.072,0.062 0.248,0.124 0.529,0.19c0.279,0.066 0.486,0.135 0.621,0.205c0.133,0.07 0.238,0.168 0.314,0.29s0.113,0.273 0.113,0.454c0,0.162 -0.045,0.315 -0.137,0.457c-0.09,0.144 -0.219,0.25 -0.383,0.318c-0.168,0.069 -0.373,0.104 -0.621,0.104c-0.359,0 -0.637,-0.083 -0.83,-0.249s-0.308,-0.41 -0.345,-0.728z" fill="#0B4870"/>
     </g>
     <g id="svg_97">
      <path id="svg_98" d="m350.408,116.288l0.559,-0.056c0.035,0.188 0.104,0.327 0.205,0.415c0.104,0.088 0.242,0.132 0.418,0.132c0.186,0 0.324,-0.039 0.42,-0.117c0.094,-0.078 0.141,-0.171 0.141,-0.274c0,-0.068 -0.021,-0.126 -0.061,-0.173c-0.039,-0.048 -0.107,-0.088 -0.207,-0.124c-0.066,-0.022 -0.221,-0.063 -0.461,-0.124c-0.309,-0.076 -0.523,-0.171 -0.648,-0.281c-0.174,-0.156 -0.262,-0.349 -0.262,-0.573c0,-0.145 0.041,-0.281 0.123,-0.407c0.082,-0.127 0.201,-0.223 0.355,-0.29c0.154,-0.064 0.342,-0.098 0.561,-0.098c0.357,0 0.627,0.078 0.807,0.234c0.182,0.156 0.277,0.367 0.285,0.629l-0.574,0.024c-0.025,-0.146 -0.078,-0.253 -0.158,-0.315c-0.082,-0.064 -0.203,-0.097 -0.365,-0.097c-0.166,0 -0.299,0.034 -0.393,0.103c-0.061,0.044 -0.092,0.103 -0.092,0.178c0,0.066 0.029,0.125 0.086,0.173c0.072,0.062 0.248,0.124 0.529,0.19c0.279,0.066 0.486,0.135 0.621,0.205s0.238,0.168 0.314,0.29s0.113,0.273 0.113,0.454c0,0.162 -0.045,0.315 -0.137,0.457c-0.09,0.144 -0.219,0.25 -0.383,0.318c-0.166,0.069 -0.373,0.104 -0.621,0.104c-0.359,0 -0.637,-0.083 -0.83,-0.249s-0.308,-0.41 -0.345,-0.728z" fill="#0B4870"/>
     </g>
     <g id="svg_99">
      <path id="svg_100" d="m295.258,117.214l0,-2.849l0.861,0l0.518,1.944l0.51,-1.944l0.863,0l0,2.849l-0.535,0l0,-2.242l-0.564,2.242l-0.555,0l-0.562,-2.242l0,2.242l-0.536,0z" fill="#0B4870"/>
     </g>
     <g id="svg_101">
      <path id="svg_102" d="m307.35,117.214l0,-2.367l-0.846,0l0,-0.481l2.264,0l0,0.481l-0.844,0l0,2.367l-0.574,0z" fill="#0B4870"/>
     </g>
     <g id="svg_103">
      <path id="svg_104" d="m317.037,117.214l-0.68,-2.849l0.59,0l0.43,1.957l0.52,-1.957l0.686,0l0.498,1.991l0.438,-1.991l0.58,0l-0.691,2.849l-0.611,0l-0.568,-2.129l-0.564,2.129l-0.628,0z" fill="#0B4870"/>
     </g>
     <g id="svg_105">
      <path id="svg_106" d="m329.703,117.214l0,-2.367l-0.846,0l0,-0.481l2.264,0l0,0.481l-0.844,0l0,2.367l-0.574,0z" fill="#0B4870"/>
     </g>
     <g id="svg_107">
      <path id="svg_108" d="m340.002,117.214l0,-2.849l1.953,0l0,0.481l-1.379,0l0,0.676l1.189,0l0,0.482l-1.189,0l0,1.209l-0.574,0l0,0.001z" fill="#0B4870"/>
     </g>
    </g>
   </g>
   <path id="svg_109" d="m264.117,108.689l0,169.35c0,3.61 -2.939,6.55 -6.549,6.55l-124.33,0c-3.611,0 -6.531,-2.939 -6.531,-6.55l0,-169.35c0,-3.61 2.92,-6.55 6.531,-6.55l124.33,0c3.61,0.001 6.549,2.94 6.549,6.55z" fill="#ea3a17" opacity="0.15"/>
   <g id="svg_110">
    <path id="svg_111" d="m168.906,130.864l59.4,0l20.059,0c0.666,0 1.191,-0.532 1.191,-1.191l0,-1.502c0,-0.666 -0.525,-1.191 -1.191,-1.191l-20.059,0l-59.4,0c-0.658,0 -1.191,0.525 -1.191,1.191l0,1.502c0,0.659 0.533,1.191 1.191,1.191z" fill="#e9411d" opacity="0.9"/>
    <path id="svg_112" d="m248.367,134.318l-28.955,0l-50.506,0c-0.66,0 -1.189,0.529 -1.189,1.19l0,1.501c0,0.659 0.529,1.196 1.189,1.196l50.506,0l28.955,0c0.66,0 1.191,-0.537 1.191,-1.196l0,-1.501c0.001,-0.66 -0.531,-1.19 -1.191,-1.19z" fill="#e9411d" opacity="0.9"/>
    <g id="svg_113">
     <path id="svg_114" d="m248.367,141.866l-11.721,0l-67.736,0c-0.658,0 -1.191,0.535 -1.191,1.194l0,1.499c0,0.66 0.533,1.192 1.191,1.192l67.736,0l11.721,0c0.668,0 1.193,-0.532 1.193,-1.192l0,-1.499c0.001,-0.659 -0.525,-1.194 -1.193,-1.194z" fill="#e9411d" opacity="0.9"/>
     <g id="svg_115">
      <path id="svg_116" d="m168.91,170.83l59.398,0l20.059,0c0.668,0 1.193,-0.532 1.193,-1.192l0,-1.501c0,-0.665 -0.525,-1.191 -1.193,-1.191l-20.059,0l-59.398,0c-0.658,0 -1.191,0.526 -1.191,1.191l0,1.501c0,0.66 0.533,1.192 1.191,1.192z" fill="#e9411d" opacity="0.9"/>
      <path id="svg_117" d="m248.371,174.284l-28.957,0l-50.504,0c-0.66,0 -1.191,0.529 -1.191,1.189l0,1.502c0,0.659 0.531,1.196 1.191,1.196l50.504,0l28.957,0c0.66,0 1.189,-0.537 1.189,-1.196l0,-1.502c0.001,-0.66 -0.529,-1.189 -1.189,-1.189z" fill="#e9411d" opacity="0.9"/>
      <path id="svg_118" d="m248.367,181.832l-11.721,0l-67.736,0c-0.658,0 -1.191,0.534 -1.191,1.194l0,1.499c0,0.659 0.533,1.192 1.191,1.192l67.736,0l11.721,0c0.668,0 1.193,-0.533 1.193,-1.192l0,-1.499c0.001,-0.66 -0.525,-1.194 -1.193,-1.194z" fill="#e9411d" opacity="0.9"/>
     </g>
     <g id="svg_119">
      <path id="svg_120" d="m151.76,129.956c3.879,0.81 6.373,4.624 5.562,8.501c-0.809,3.879 -4.623,6.373 -8.5,5.563c-3.879,-0.811 -6.375,-4.624 -5.564,-8.501c0.81,-3.877 4.625,-6.373 8.502,-5.563m0.377,-1.801c-4.879,-1.02 -9.66,2.11 -10.68,6.988c-1.018,4.877 2.109,9.659 6.988,10.678c4.879,1.02 9.66,-2.109 10.678,-6.988c1.02,-4.878 -2.109,-9.658 -6.986,-10.678l0,0z" fill="#e9411d"/>
      <path id="svg_121" d="m145.379,135.69l2.961,5.753c0.303,0.589 1.141,0.604 1.461,0.022c1.592,-2.88 5.646,-9.616 11.035,-14.123c0.322,-0.271 -0.039,-0.801 -0.389,-0.566c-4.549,3.038 -8.615,7.371 -11.484,12.42l-3.193,-3.791c-0.198,-0.195 -0.516,0.038 -0.391,0.285z" fill="#0B4870"/>
     </g>
     <g id="svg_122">
      <path id="svg_123" d="m151.76,169.922c3.879,0.81 6.373,4.624 5.562,8.501c-0.809,3.879 -4.623,6.373 -8.5,5.563c-3.879,-0.811 -6.375,-4.624 -5.564,-8.501c0.81,-3.879 4.625,-6.375 8.502,-5.563m0.377,-1.801c-4.879,-1.02 -9.66,2.11 -10.68,6.988c-1.018,4.876 2.109,9.659 6.988,10.678c4.879,1.02 9.66,-2.11 10.678,-6.988c1.02,-4.878 -2.109,-9.659 -6.986,-10.678l0,0z" fill="#e9411d"/>
      <path id="svg_124" d="m145.379,175.656l2.961,5.753c0.303,0.589 1.141,0.604 1.461,0.022c1.592,-2.88 5.646,-9.616 11.035,-14.123c0.322,-0.272 -0.039,-0.802 -0.389,-0.567c-4.549,3.039 -8.615,7.371 -11.484,12.421l-3.193,-3.791c-0.198,-0.195 -0.516,0.038 -0.391,0.285z" fill="#0B4870"/>
     </g>
     <g id="svg_125">
      <g id="svg_126">
       <g id="svg_127">
        <g id="svg_128">
         <path id="svg_129" d="m229.502,212.694l0,1.501c0,0.658 -0.533,1.192 -1.193,1.192l-59.399,0c-0.658,0 -1.191,-0.534 -1.191,-1.192l0,-1.501c0,-0.668 0.533,-1.191 1.191,-1.191l59.398,0c0.661,0 1.194,0.523 1.194,1.191z" fill="#e9411d"/>
        </g>
        <g id="svg_130">
         <path id="svg_131" d="m249.561,212.694l0,1.501c0,0.658 -0.525,1.192 -1.193,1.192l-20.059,0c0.66,0 1.193,-0.534 1.193,-1.192l0,-1.501c0,-0.668 -0.533,-1.191 -1.193,-1.191l20.059,0c0.667,0 1.193,0.523 1.193,1.191z" fill="#e9411d" opacity="0.4"/>
        </g>
       </g>
       <g id="svg_132">
        <path id="svg_133" d="m220.607,220.268l0,1.501c0,0.661 -0.531,1.197 -1.193,1.197l-50.504,0c-0.66,0 -1.191,-0.536 -1.191,-1.197l0,-1.501c0,-0.659 0.531,-1.19 1.191,-1.19l50.504,0c0.662,-0.001 1.193,0.53 1.193,1.19z" fill="#e9411d"/>
        <path id="svg_134" d="m249.561,220.268l0,1.501c0,0.661 -0.529,1.197 -1.189,1.197l-28.957,0c0.662,0 1.193,-0.536 1.193,-1.197l0,-1.501c0,-0.659 -0.531,-1.19 -1.193,-1.19l28.957,0c0.659,-0.001 1.189,0.53 1.189,1.19z" fill="#e9411d" opacity="0.4"/>
       </g>
       <g id="svg_135">
        <path id="svg_136" d="m237.838,205.512l0,1.501c0,0.658 -0.533,1.192 -1.191,1.192l-67.737,0c-0.658,0 -1.191,-0.534 -1.191,-1.192l0,-1.501c0,-0.657 0.533,-1.191 1.191,-1.191l67.736,0c0.659,-0.001 1.192,0.533 1.192,1.191z" fill="#e9411d"/>
        <path id="svg_137" d="m249.561,205.512l0,1.501c0,0.658 -0.525,1.192 -1.193,1.192l-11.721,0c0.658,0 1.191,-0.534 1.191,-1.192l0,-1.501c0,-0.657 -0.533,-1.191 -1.191,-1.191l11.721,0c0.667,-0.001 1.193,0.533 1.193,1.191z" fill="#e9411d" opacity="0.4"/>
       </g>
      </g>
      <g id="svg_138">
       <path id="svg_139" d="m151.76,206.611c3.879,0.81 6.373,4.624 5.562,8.501c-0.809,3.879 -4.623,6.373 -8.5,5.563c-3.879,-0.811 -6.375,-4.624 -5.564,-8.501c0.81,-3.878 4.625,-6.374 8.502,-5.563m0.377,-1.8c-4.879,-1.02 -9.66,2.11 -10.68,6.988c-1.018,4.876 2.109,9.659 6.988,10.678c4.879,1.02 9.66,-2.11 10.678,-6.988c1.02,-4.879 -2.109,-9.66 -6.986,-10.678l0,0z" fill="#e9411d"/>
      </g>
     </g>
     <g id="svg_140">
      <g id="svg_141">
       <g id="svg_142">
        <g id="svg_143">
         <path id="svg_144" d="m229.502,249.739l0,1.501c0,0.658 -0.533,1.192 -1.193,1.192l-59.399,0c-0.658,0 -1.191,-0.534 -1.191,-1.192l0,-1.501c0,-0.668 0.533,-1.191 1.191,-1.191l59.398,0c0.661,0 1.194,0.523 1.194,1.191z" fill="#e9411d"/>
        </g>
        <g id="svg_145">
         <path id="svg_146" d="m249.561,249.739l0,1.501c0,0.658 -0.525,1.192 -1.193,1.192l-20.059,0c0.66,0 1.193,-0.534 1.193,-1.192l0,-1.501c0,-0.668 -0.533,-1.191 -1.193,-1.191l20.059,0c0.667,0 1.193,0.523 1.193,1.191z" fill="#e9411d"/>
        </g>
       </g>
       <g id="svg_147">
        <path id="svg_148" d="m220.607,257.312l0,1.501c0,0.661 -0.531,1.197 -1.193,1.197l-50.504,0c-0.66,0 -1.191,-0.536 -1.191,-1.197l0,-1.501c0,-0.659 0.531,-1.19 1.191,-1.19l50.504,0c0.662,0 1.193,0.531 1.193,1.19z" fill="#e9411d"/>
        <path id="svg_149" d="m249.561,257.312l0,1.501c0,0.661 -0.529,1.197 -1.189,1.197l-28.957,0c0.662,0 1.193,-0.536 1.193,-1.197l0,-1.501c0,-0.659 -0.531,-1.19 -1.193,-1.19l28.957,0c0.659,0 1.189,0.531 1.189,1.19z" fill="#e9411d" opacity="0.4"/>
       </g>
       <g id="svg_150">
        <path id="svg_151" d="m237.838,242.557l0,1.501c0,0.658 -0.533,1.192 -1.191,1.192l-67.737,0c-0.658,0 -1.191,-0.534 -1.191,-1.192l0,-1.501c0,-0.657 0.533,-1.191 1.191,-1.191l67.736,0c0.659,-0.001 1.192,0.533 1.192,1.191z" fill="#e9411d"/>
        <path id="svg_152" d="m249.561,242.557l0,1.501c0,0.658 -0.525,1.192 -1.193,1.192l-11.721,0c0.658,0 1.191,-0.534 1.191,-1.192l0,-1.501c0,-0.657 -0.533,-1.191 -1.191,-1.191l11.721,0c0.667,-0.001 1.193,0.533 1.193,1.191z" fill="#e9411d" opacity="0.4"/>
       </g>
      </g>
      <g id="svg_153">
       <path id="svg_154" d="m151.76,243.656c3.879,0.81 6.373,4.624 5.562,8.501c-0.809,3.879 -4.623,6.373 -8.5,5.563c-3.879,-0.811 -6.375,-4.624 -5.564,-8.501c0.81,-3.878 4.625,-6.374 8.502,-5.563m0.377,-1.801c-4.879,-1.02 -9.66,2.11 -10.68,6.988c-1.018,4.876 2.109,9.659 6.988,10.678c4.879,1.02 9.66,-2.11 10.678,-6.988c1.02,-4.878 -2.109,-9.659 -6.986,-10.678l0,0z" fill="#e9411d"/>
      </g>
     </g>
    </g>
   </g>
   <g id="svg_155">
    <path id="svg_156" d="m361.248,163.753l-14.131,-0.191c-0.061,4.402 4.529,7.089 4.504,9.009c-0.029,2.133 -4.672,3.377 -4.748,8.884l14.131,0.192c0.074,-5.505 -4.531,-6.876 -4.504,-9.01c0.027,-1.918 4.686,-4.48 4.748,-8.884z" fill="#F7F7F7"/>
    <path id="svg_157" d="m349.459,179.679c0.467,-1.657 1.51,-2.695 2.459,-3.639c0.992,-0.992 2.02,-2.013 2.039,-3.439c0.02,-1.295 -0.93,-2.461 -1.938,-3.695c-0.85,-1.046 -1.777,-2.188 -2.252,-3.499l8.779,0.117c-0.51,1.301 -1.471,2.416 -2.348,3.437c-1.037,1.207 -2.018,2.35 -2.035,3.643c-0.021,1.427 0.979,2.479 1.945,3.493c0.922,0.97 1.936,2.036 2.357,3.709l-9.006,-0.127z" fill="#e9411d"/>
    <path id="svg_158" d="m363.189,163.781l-18.016,-0.248c-0.494,-0.005 -0.893,-0.413 -0.883,-0.907l0,-0.238c0.008,-0.496 0.416,-0.895 0.91,-0.887l18.016,0.244c0.496,0.009 0.893,0.414 0.885,0.909l-0.002,0.239c-0.005,0.497 -0.413,0.894 -0.91,0.888z" fill="#0B4870"/>
    <path id="svg_159" d="m362.92,183.706l-18.018,-0.246c-0.494,-0.006 -0.891,-0.414 -0.885,-0.908l0.004,-0.241c0.008,-0.495 0.412,-0.89 0.908,-0.886l18.018,0.246c0.496,0.008 0.893,0.415 0.885,0.908l-0.006,0.241c-0.006,0.495 -0.412,0.892 -0.906,0.886z" fill="#0B4870"/>
   </g>
   <g id="svg_160">
    <g id="svg_161">
     <path id="svg_162" d="m272.453,193.786c0.4,0.593 0.248,1.4 -0.344,1.805l-13.449,9.147c-0.596,0.402 -1.402,0.249 -1.807,-0.344l-12.883,-18.943c-0.404,-0.593 -0.248,-1.4 0.344,-1.804l13.449,-9.147c0.594,-0.402 1.402,-0.251 1.805,0.343l12.885,18.943z" fill="#D3D3D3"/>
     <path id="svg_163" d="m259.066,176.25l10.943,16.091c0.352,0.516 0.219,1.221 -0.299,1.572l-11.73,7.979c-0.516,0.354 -1.221,0.219 -1.572,-0.299l-10.943,-16.091c-0.354,-0.518 -0.219,-1.222 0.299,-1.573l11.729,-7.979c0.519,-0.351 1.222,-0.218 1.573,0.3z" fill="#CCE9FF"/>
    </g>
    <g id="svg_165">
     <path id="svg_166" d="m256.092,202.433c0,0 -2.176,-1.957 -3.229,-2.776s-3.027,-3.229 -3.32,-3.369c-0.291,-0.142 -4.064,-7.884 -4.68,-8.194c-0.613,-0.31 0.582,-1.354 1.885,0.52c1.301,1.873 3.59,4.283 4.459,4.107s0.121,-2.527 0.689,-3.031s0.541,-0.146 0.818,0.118c0.277,0.269 -0.059,3.188 0.748,4.081c0.805,0.891 0.947,2.701 1.553,3.39c0.605,0.688 3.527,4.042 3.527,4.042l-2.45,1.112z" fill="#EEA886"/>
    </g>
    <g id="svg_167">
     <path id="svg_168" d="m302.951,307.102c0,0 0.471,3.269 0.529,3.759c0.059,0.491 5.236,-0.289 5.236,-0.289l0.418,-3.89c0.001,0 -5.536,-0.041 -6.183,0.42z" fill="#424773"/>
    </g>
    <g id="svg_169">
     <path id="svg_170" d="m303.426,310.444c0,0 -1.641,1.969 -3.227,2.827c-1.588,0.858 -6.582,1.198 -7.52,2.085c-0.678,0.643 0.035,3.402 6.623,3.347c6.59,-0.058 9.768,0.39 10.471,-0.669c0.707,-1.057 -1.02,-7.811 -1.02,-7.811s-1.56,0.562 -5.327,0.221z" fill="#000000"/>
    </g>
    <g id="svg_171">
     <path id="svg_172" d="m265.857,307.102c0,0 0.471,3.269 0.529,3.759c0.059,0.491 5.236,-0.289 5.236,-0.289l0.418,-3.89c0.001,0 -5.536,-0.041 -6.183,0.42z" fill="#424773"/>
    </g>
    <g id="svg_173">
     <path id="svg_174" d="m266.33,310.444c0,0 -1.639,1.969 -3.225,2.827c-1.588,0.858 -9.926,1.562 -10.863,2.45c-0.678,0.642 0.697,3.223 9.967,2.981c6.588,-0.171 9.766,0.39 10.473,-0.669c0.707,-1.057 -1.021,-7.811 -1.021,-7.811s-1.472,0.6 -5.331,0.222z" fill="#000000"/>
    </g>
    <g id="svg_175">
     <path id="svg_176" d="m290.547,158.183c0,0 -6.529,-2.438 -9.541,2.53c-3.01,4.97 -2.719,14.92 0.57,16.145c3.293,1.223 8.236,0.583 9.922,-2.525c1.684,-3.111 3.205,-7.607 3.133,-10.611c-0.074,-3.005 -2.369,-4.673 -4.084,-5.539z" fill="#EEA886"/>
    </g>
    <g id="svg_177">
     <path id="svg_178" d="m282.287,177.085c0,0 0.271,1.762 -0.178,2.632c-0.449,0.868 8.459,0.891 8.459,0.891s0.723,-4.724 2.094,-8.715c1.371,-3.991 -10.375,5.192 -10.375,5.192z" fill="#EEA886"/>
    </g>
    <g id="svg_179">
     <path id="svg_180" d="m292.662,171.893c0,0 -0.615,1.015 -3.125,0.62c-2.51,-0.394 -5.572,-3.731 -6.619,-4.098s-1.057,-0.983 -1.057,-0.983l-0.656,0.959l-1.113,0.069c0,0 1.016,-2.985 -0.518,-4.203c-1.531,-1.219 1.59,-9.668 9.639,-6.855c0,0 6.182,1.705 5.957,5.221c-0.225,3.514 -1.125,7.52 -2.508,9.27z" fill="#454343"/>
    </g>
    <g id="svg_181">
     <path id="svg_182" d="m282.027,166.153c0.141,-0.59 1.639,-2.274 2.215,-0.471c0.574,1.806 -0.869,4.232 -1.672,4.023c-0.804,-0.206 -0.9,-2.056 -0.543,-3.552z" fill="#EEA886"/>
    </g>
    <g id="svg_183">
     <path id="svg_184" d="m251.619,199.215c0.004,-0.001 0.008,-0.001 0.012,-0.001c-0.051,0.022 -0.059,0.023 -0.012,0.001z" fill="#323657"/>
    </g>
    <g id="svg_185">
     <path id="svg_186" d="m306.084,203.59c-0.258,0.844 -1.449,1.552 -2.217,1.868c-0.492,0.2 -1.043,0.267 -1.602,0.159l-0.391,-0.066l0,-0.009l-0.01,0c-0.025,0.217 -0.059,0.434 -0.082,0.658l0,0.034c0.533,2.483 -0.268,11.487 -0.709,15.83c-0.143,1.45 -0.25,2.386 -0.25,2.386s-27.77,-0.243 -27.402,0c-0.852,-0.342 -1.268,-2.376 -1.443,-5.053c-0.35,-5.294 0.268,-13.072 0.426,-14.964c-0.275,1.967 -1.676,7.303 -3.344,10.319c-0.658,1.185 -2.842,4.895 -3.9,4.043c-5.111,-4.075 -13.023,-19.457 -13.531,-19.582c0.426,-0.183 3.752,-1.717 4.219,-1.876c0.408,-0.132 4.102,3.77 6.336,6.195c0.992,1.075 1.701,1.858 1.701,1.858c0.641,-1.449 2.992,-10.596 3.727,-13.764c1.641,-7.136 1.391,-7.429 1.391,-7.429c4.994,-1.508 12.58,-4.585 12.58,-4.585l10.004,-0.409c0,0 9.18,2.02 12.797,3.652c0.01,0 0.018,0.017 0.033,0.042c0.468,0.802 4.001,13.182 1.667,20.693z" fill="#e9411d"/>
    </g>
    <g id="svg_187"/>
    <path id="svg_189" d="m309.928,291.532c-0.119,-4.353 -3.453,-23.613 -4.268,-31.749c-0.732,-7.298 -2.857,-14.925 -2.494,-21.91c0.217,-4.172 0.236,-8.301 -1.125,-11.197c0.291,-1.093 -1.125,-2.584 -0.93,-3.913c0,0 -25.336,-2.87 -28.055,1.443c0,0 -3.666,19.146 -4.15,23.422c-0.482,4.275 -0.805,20.691 -1.049,23.365c-0.24,2.672 -1.611,34.969 -2.902,38.94l8.531,0c0,0 6.549,-23.479 6.549,-34.589c0,-10.247 4.303,-22.127 7.535,-29.662c1.947,7.625 6.93,24.349 8.111,27.143c1.451,3.436 7.057,37.108 7.057,37.108l6.674,-0.153c0,0 0.637,-13.897 0.516,-18.248z" fill="#454343"/>
   </g>
  </g>
  <path id="svg_191" d="m292.74508,205.49019" opacity="0.5" stroke-width="1.5" stroke="#000" fill="#e9411d"/>
 </g>
</svg>